<?xml version="1.0" encoding="utf-8"?>
<!-- Generator: Adobe Illustrator 18.0.0, SVG Export Plug-In . SVG Version: 6.00 Build 0)  -->
<!DOCTYPE svg PUBLIC "-//W3C//DTD SVG 1.1//EN" "http://www.w3.org/Graphics/SVG/1.1/DTD/svg11.dtd">
<svg version="1.1" id="Layer_1" xmlns="http://www.w3.org/2000/svg" xmlns:xlink="http://www.w3.org/1999/xlink" x="0px" y="0px"
	 viewBox="0 0 42 42" enable-background="new 0 0 42 42" xml:space="preserve">
<g>
	<path fill="#FAA725" d="M21,40.4c-10.8,0-19.5-8.7-19.5-19.4S10.2,1.5,21,1.5c10.8,0,19.5,8.7,19.5,19.4S31.8,40.4,21,40.4z"/>
	<path fill="#F0D973" d="M21,3c9.9,0,18,8,18,17.9s-8.1,17.9-18,17.9s-18-8-18-17.9S11.1,3,21,3 M21,0C9.4,0,0,9.4,0,20.9
		s9.4,20.9,21,20.9s21-9.4,21-20.9S32.6,0,21,0L21,0z"/>
</g>
<polygon fill="#FFFFFF" points="25.5,21 25.5,9.9 16.5,9.9 16.5,21 11.9,21 21,32.9 30.1,21 "/>
</svg>
