<?xml version="1.0" encoding="utf-8"?>
<!-- Generator: Adobe Illustrator 18.0.0, SVG Export Plug-In . SVG Version: 6.00 Build 0)  -->
<!DOCTYPE svg PUBLIC "-//W3C//DTD SVG 1.1//EN" "http://www.w3.org/Graphics/SVG/1.1/DTD/svg11.dtd">
<svg version="1.1" id="Layer_3" xmlns="http://www.w3.org/2000/svg" xmlns:xlink="http://www.w3.org/1999/xlink" x="0px" y="0px"
	 viewBox="0 0 121.5 98.5" enable-background="new 0 0 121.5 98.5" xml:space="preserve">
<path fill="#FFFFFF" d="M114.3,18.2C114.3,18.2,114.3,18.2,114.3,18.2l0-10H113h-2.8H10.9h-2h-2v19.1v17.3v48.1h1.7h2.4h5.5
	c0,0,0,0,0,0h88.3c0,0,0,0,0,0h5.5h2.4h1.7v-9.5c0,0,0,0,0,0V18.2z M97.8,35.1c-8,6.3-16.1,12.6-24,18.9c-3.2,2.6-8.9,8.1-13.1,8.1
	h-0.1h-0.1c-4.2,0-10-5.5-13.1-8.1c-8-6.3-16-12.6-24-18.9c-5.4-4.2-8.8-10.1-8.8-16.9c0-1,0.9-1.9,1.9-1.9h88.3
	c2.3,0,1.9,2.6,1.9,4.1C106.6,25.4,101.7,32.1,97.8,35.1z M106.6,37.2V83c0,1-0.9,1.9-1.9,1.9H16.4c-1,0-1.9-0.9-1.9-1.9V37.2
	c1.3,1.4,2.6,2.7,4.1,3.9c8.6,6.6,17.2,13.2,25.5,20.2c4.5,3.8,10.1,8.4,16.3,8.4h0.1h0.1c6.2,0,11.8-4.6,16.3-8.4
	c8.3-6.9,17-13.6,25.5-20.2C104,40,105.3,38.7,106.6,37.2z"/>
</svg>
